<?xml version="1.0" encoding="utf-8"?>
<!-- Generator: Adobe Illustrator 27.3.1, SVG Export Plug-In . SVG Version: 6.00 Build 0)  -->
<svg version="1.1" id="Capa_1" xmlns="http://www.w3.org/2000/svg" xmlns:xlink="http://www.w3.org/1999/xlink" x="0px" y="0px"
	 viewBox="0 0 512 512" style="enable-background:new 0 0 512 512;" xml:space="preserve">
<style type="text/css">
	.st0{fill:#FFFFFF;}
</style>
<g>
	<g>
		<g>
			<path class="st0" d="M446.5,63C377.6,29.9,261,26.2,255.9,26c-4.9,0-121.5,3.9-190.3,37c-3,1.4-5,4.5-5,7.9v188.2
				c0,5.8,3.5,142.5,192.4,226.1c2.3,1,4.8,1,7.1,0C448.3,401.6,451.4,264.7,451.5,259V70.9C451.5,67.5,449.5,64.4,446.5,63z
				 M434,258.9c0,1.3-3.2,129.5-178.1,208.7C81.7,388.9,77.9,264.3,77.8,259V76.5c64.4-28.7,172.1-32.8,178.1-33s113.7,4.3,178.1,33
				V258.9z"/>
		</g>
	</g>
	<g>
		<polygon class="st0" points="267.6,297.7 139.8,297.7 171.3,140 223.4,140 200.4,254.6 276.2,254.6 		"/>
		<path class="st0" d="M364.8,177.4l7.4-37.2h-37.9c-5.2-0.2-10.4,0.8-15.1,3c-4.4,2.5-8,6-10.6,10.3c-0.5-4.1-2.6-7.8-5.9-10.2
			c-4.3-2.4-9.2-3.5-14.1-3.1H263c-8.5-0.3-16.8,2.5-23.4,8c-6.6,6.1-10.9,14.2-12.2,23.1l-7.2,39c-2,10-1,17.6,3,23
			c4,5.3,10.7,8,20.2,8h27.1c4.4,0.2,8.7-0.6,12.7-2.2c3.9-1.8,7.5-4.4,10.4-7.6l-14.4,66.3h60.5l8.6-43.1h-18.6l15.8-77.2H364.8z
			 M298.9,206.9h-35.4l5.8-30.5h35.5L298.9,206.9z"/>
	</g>
</g>
</svg>
