<?xml version="1.0" encoding="utf-8"?>
<!-- Generator: Adobe Illustrator 27.3.1, SVG Export Plug-In . SVG Version: 6.00 Build 0)  -->
<svg version="1.1" id="Capa_1" xmlns="http://www.w3.org/2000/svg" xmlns:xlink="http://www.w3.org/1999/xlink" x="0px" y="0px"
	 viewBox="0 0 512 512" style="enable-background:new 0 0 512 512;" xml:space="preserve">
<style type="text/css">
	.st0{display:none;fill:#FFFFFF;}
	.st1{fill:#FFFFFF;}
</style>
<g>
	<g>
		<path class="st0" d="M448.3,85.1H63.7c-23.6,0-42.7,19.1-42.7,42.7v256.4c0,23.6,19.1,42.7,42.7,42.7h384.5
			c23.6,0,42.7-19.1,42.7-42.7V127.8C491,104.2,471.9,85.1,448.3,85.1z M63.7,106.5h384.5c2.4,0,4.9,0.4,7.2,1.3L270.5,292.6
			c-7.9,8-20.9,8-28.9,0.1c0,0-0.1-0.1-0.1-0.1l-185-184.9C58.9,106.9,61.3,106.5,63.7,106.5z M42.4,384.2V127.8
			c-0.1-1.2-0.1-2.5,0-3.7L174.6,256L42.4,387.9C42.3,386.7,42.3,385.4,42.4,384.2z M448.3,405.5H63.7c-2.4,0-4.9-0.4-7.2-1.3
			l133.2-133.2l36.6,36.6c16.3,16.3,42.7,16.4,59.1,0.1c0,0,0.1-0.1,0.1-0.1l36.6-36.6l133.2,133.2
			C453.1,405.1,450.7,405.5,448.3,405.5z M469.6,387.9L337.4,256l132.2-131.9c0.1,1.2,0.1,2.5,0,3.7v256.4
			C469.7,385.4,469.7,386.7,469.6,387.9z"/>
		<path class="st1" d="M63.7,424.9c-22.5,0-40.7-18.3-40.7-40.7V127.8c0-22.5,18.3-40.7,40.7-40.7h384.5c10.9,0,21.1,4.2,28.8,11.9
			c7.7,7.7,11.9,17.9,11.9,28.8v256.4c0,22.5-18.3,40.7-40.7,40.7H63.7z M52.9,405.1l3,1.1c2.5,0.9,5.1,1.4,7.8,1.4h384.6
			c2.7,0,5.3-0.5,7.8-1.4l3-1.1L322.2,268.2l-38.2,38.2c-7.5,7.5-17.5,11.6-28.1,11.6c-10.7,0-20.7-4.2-28.2-11.7l-38.1-38.1
			L52.9,405.1z M40.4,384.1c-0.1,1.3-0.1,2.7,0,4l0.4,4.3L177.4,256L40.7,119.6l-0.4,4.3c-0.1,1.3-0.1,2.7,0,4V384.1z M334.6,256
			l136.7,136.4l0.4-4.3c0.1-1.3,0.1-2.7,0-4V127.9c0.1-1.3,0.1-2.7,0-4l-0.4-4.3L334.6,256z M63.7,104.5c-2.7,0-5.3,0.5-7.8,1.4
			l-3,1.1l187.3,187.2c4.2,4.2,9.8,6.5,15.8,6.5c6,0,11.7-2.3,15.9-6.6l187.1-187.1l-3-1.1c-2.5-0.9-5.1-1.4-7.8-1.4H63.7
			L63.7,104.5z"/>
	</g>
</g>
</svg>
