<?xml version="1.0" encoding="utf-8"?>
<!-- Generator: Adobe Illustrator 27.6.1, SVG Export Plug-In . SVG Version: 6.00 Build 0)  -->
<svg version="1.1" id="Capa_1" xmlns="http://www.w3.org/2000/svg" xmlns:xlink="http://www.w3.org/1999/xlink" x="0px" y="0px"
	 viewBox="0 0 512 512" style="enable-background:new 0 0 512 512;" xml:space="preserve">
<style type="text/css">
	.st0{fill:#FFFFFF;}
</style>
<path id="_x35_4" class="st0" d="M54.6,356.5c11,10.1,20.8,16.4,26.2,19.5v58.6c0,19.4,15.7,35.2,35.1,35.2h276.8
	c19.4,0,35.2-15.8,35.2-35.2V84.9c0-19.3-15.8-35.1-35.2-35.1H115.9c-19.3,0-35.1,15.7-35.1,35.1v112.2
	c-18.1,15.4-41,21.3-62.6,18.1c-2.4-0.5-4.8,0-6.8,1.4c-2,1.4-3.3,3.5-3.7,5.9C-2,288.9,27.9,332.1,54.6,356.5z M115.9,67.3h276.8
	c9.7,0,17.7,7.9,17.7,17.6v349.7c0,9.7-7.9,17.7-17.7,17.7H115.9c-9.7,0-17.6-7.9-17.6-17.7v-60c12.8-8.1,19.3-13.7,26.2-20.3v23.4
	c0,15.1,12.2,27.3,27.3,27.3h204.9c15.1,0,27.3-12.2,27.3-27.3V138.4c0-15.1-12.2-27.3-27.3-27.3H151.9c-15.1,0-27.3,12.2-27.3,27.3
	v72.4c-8.9-3.1-17.4-7.1-26.2-12.7V84.9C98.3,75.2,106.2,67.3,115.9,67.3z M171.2,237c-0.3-8.9-1.2-14.3-1.3-14.5
	c-0.8-4.7-5.1-7.8-9.8-7.2c-8.4,1.2-14,0.3-18.1-0.3v-76.6c0-5.4,4.4-9.8,9.8-9.8h204.9c5.4,0,9.8,4.4,9.8,9.8v239.4
	c0,5.4-4.4,9.8-9.8,9.8h-10.9v-1c0-38.8-24.3-72-58.5-85.3c13-10,21.5-25.7,21.5-43.4c0-30.1-24.5-54.6-54.5-54.6
	c-30.1,0-54.6,24.5-54.6,54.6c0,17.7,8.5,33.4,21.5,43.3c-34.4,13.3-58.5,46.4-58.5,85.3v1h-10.9c-5.4,0-9.8-4.4-9.8-9.8v-43.3
	C162.9,305.8,172.3,271.2,171.2,237z M217.2,257.9c0-20.5,16.7-37.1,37.1-37.1c20.4,0,37,16.7,37,37.1s-16.6,37.1-37,37.1
	C233.9,295,217.2,278.4,217.2,257.9z M328.4,387.6H180.2v-1c0-40.8,33-74,74.1-74c40.8,0,74,33.2,74,74V387.6z M24,233.4
	c22.7,1.2,46-5.4,65.1-20.4c18.7,11.8,42.4,20.9,64.4,20.3c0.1,1.3,0.2,2.7,0.2,4.2c1.5,48.6-19.6,94.1-65.1,122.8
	c-4.7-2.8-13.1-8.3-22.2-16.7C43.9,323.1,19,287.5,24,233.4z M238.9,98.2h30.9c4.8,0,8.8-3.9,8.8-8.8s-3.9-8.8-8.8-8.8h-30.9
	c-4.8,0-8.8,3.9-8.8,8.8S234,98.2,238.9,98.2z M254.3,420.4c-4.8,0-9.2,4.4-9.2,9.2s4.4,9.2,9.2,9.2c4.8,0,9.2-4.4,9.2-9.2
	S259.2,420.4,254.3,420.4z M75.1,300.4c3.4,3.3,8.9,3.2,12.2-0.1l31.7-31.7c3.4-3.4,3.4-9,0-12.4s-9-3.4-12.4,0L81,281.8l-5.8-5.6
	c-3.5-3.3-9-3.2-12.4,0.3c-3.3,3.5-3.2,9,0.3,12.4L75.1,300.4z M180.5,172h147.6c4.8,0,8.8-3.9,8.8-8.8s-3.9-8.8-8.8-8.8H180.5
	c-4.8,0-8.8,3.9-8.8,8.8S175.7,172,180.5,172z"/>
</svg>
