<?xml version="1.0" encoding="utf-8"?>
<!-- Generator: Adobe Illustrator 27.4.1, SVG Export Plug-In . SVG Version: 6.00 Build 0)  -->
<svg version="1.1" id="Layer_1" xmlns="http://www.w3.org/2000/svg" xmlns:xlink="http://www.w3.org/1999/xlink" x="0px" y="0px"
	 viewBox="0 0 512 512" style="enable-background:new 0 0 512 512;" xml:space="preserve">
<style type="text/css">
	.st0{fill:#FFFFFF;}
</style>
<g>
	<path class="st0" d="M449.5,172.1c3.6,0,6.5-2.9,6.5-6.5v-19.4c0-3.6-2.9-6.5-6.5-6.5H339.9v-6.5h38.7c3.6,0,6.5-2.9,6.5-6.5V68.9
		c0-3.6-2.9-6.5-6.5-6.5H133.4c-3.6,0-6.5,2.9-6.5,6.5V127c0,3.6,2.9,6.5,6.5,6.5h38.7v6.5H62.5c-3.6,0-6.5,2.9-6.5,6.5v19.4
		c0,3.6,2.9,6.5,6.5,6.5h6.5v245.2h-6.5c-3.6,0-6.5,2.9-6.5,6.5v19.4c0,3.6,2.9,6.5,6.5,6.5h387.1c3.6,0,6.5-2.9,6.5-6.5v-19.4
		c0-3.6-2.9-6.5-6.5-6.5h-6.5V172.1H449.5z M139.9,120.5V75.4h232.3v45.2H139.9z M327,133.4v6.5h-64.5v-6.5H327z M249.5,133.4v6.5
		H185v-6.5H249.5z M443.1,436.6H68.9v-6.5h374.2V436.6z M404.4,191.5H288.3c-3.6,0-6.5,2.9-6.5,6.5v219.4h-200V172.1h348.4v245.2
		h-19.4V197.9C410.8,194.4,408,191.5,404.4,191.5z M294.7,223.7v-19.4h103.2v19.4H294.7z M397.9,236.6v180.6H294.7V236.6H397.9z
		 M68.9,159.2v-6.5h374.2v6.5H68.9z"/>
	<path class="st0" d="M378.6,301.2c-3.6,0-6.5,2.9-6.5,6.5v38.7c0,3.6,2.9,6.5,6.5,6.5c3.6,0,6.5-2.9,6.5-6.5v-38.7
		C385,304,382.1,301.2,378.6,301.2z"/>
	<path class="st0" d="M107.6,359.2H256c3.6,0,6.5-2.9,6.5-6.5V197.9c0-3.6-2.9-6.5-6.5-6.5H107.6c-3.6,0-6.5,2.9-6.5,6.5v154.8
		C101.2,356.3,104,359.2,107.6,359.2z M249.5,346.3H114.1V236.6h135.5V346.3z M114.1,204.4h135.5v19.4H114.1V204.4z"/>
</g>
</svg>
