<?xml version="1.0" encoding="utf-8"?>
<!-- Generator: Adobe Illustrator 27.3.1, SVG Export Plug-In . SVG Version: 6.00 Build 0)  -->
<svg version="1.1" id="Line_Expand" xmlns="http://www.w3.org/2000/svg" xmlns:xlink="http://www.w3.org/1999/xlink" x="0px"
	 y="0px" viewBox="0 0 512 512" style="enable-background:new 0 0 512 512;" xml:space="preserve">
<style type="text/css">
	.st0{fill:#FFFFFF;}
</style>
<g>
	<path class="st0" d="M472.5,259.6l-40-10l-23.3-81.6c-4.8-16.6-20-28-37.2-28.1h-46.3v-23.2c0-12.8-10.4-23.2-23.2-23.2H39.2
		c-12.8,0-23.2,10.4-23.2,23.2v232.3c0,12.8,10.4,23.2,23.2,23.2h8.4c4.2,29.6,31.7,50.1,61.2,45.9c23.8-3.4,42.5-22.1,45.9-45.9
		h202.5c4.2,29.6,31.7,50.1,61.2,45.9c23.8-3.4,42.5-22.1,45.9-45.9h8.4c12.8,0,23.2-10.4,23.2-23.2v-59.3
		C496,275.4,486.3,263,472.5,259.6L472.5,259.6z M47.6,356.6h-8.4c-4.3,0-7.7-3.5-7.7-7.7v-23.2h31.8
		C54.8,334,49.3,344.9,47.6,356.6z M101.2,403.1c-21.4,0-38.7-17.3-38.7-38.7c0-21.4,17.3-38.7,38.7-38.7s38.7,17.3,38.7,38.7
		C139.8,385.8,122.5,403.1,101.2,403.1z M310.2,356.6H154.7c-1.7-11.8-7.2-22.7-15.7-31h171.2V356.6z M310.2,310.2H31.5V116.6
		c0-4.3,3.5-7.7,7.7-7.7h263.2c4.3,0,7.7,3.5,7.7,7.7V310.2z M416.1,248.3h-51.7c-4.3,0-7.7-3.5-7.7-7.7v-46.5
		c0-4.3,3.5-7.7,7.7-7.7h34L416.1,248.3z M410.8,403.1c-21.4,0-38.7-17.3-38.7-38.7c0-21.4,17.3-38.7,38.7-38.7
		c21.4,0,38.7,17.3,38.7,38.7C449.5,385.8,432.2,403.1,410.8,403.1z M480.5,348.9c0,4.3-3.5,7.7-7.7,7.7h-8.4
		c-4.2-29.6-31.7-50.1-61.2-45.9c-23.8,3.4-42.5,22.1-45.9,45.9h-31.6V155.4H372c9.8,0.1,18.5,6.2,21.8,15.5h-29.4
		c-12.8,0-23.2,10.4-23.2,23.2v46.5c0,12.8,10.4,23.2,23.2,23.2h61l43.4,10.8c3,0.8,5.6,2.4,7.7,4.6h-3.7
		c-12.8,0-23.2,10.4-23.2,23.2c0,12.8,10.4,23.2,23.2,23.2h7.7V348.9z M480.5,310.2h-7.7c-4.3,0-7.7-3.5-7.7-7.7
		c0-4.3,3.5-7.7,7.7-7.7h7.7V310.2z"/>
	<path class="st0" d="M410.8,341.2c-12.8,0-23.2,10.4-23.2,23.2c0,12.8,10.4,23.2,23.2,23.2c12.8,0,23.2-10.4,23.2-23.2
		C434.1,351.6,423.7,341.2,410.8,341.2z M410.8,372.1c-4.3,0-7.7-3.5-7.7-7.7c0-4.3,3.5-7.7,7.7-7.7c4.3,0,7.7,3.5,7.7,7.7
		C418.6,368.7,415.1,372.1,410.8,372.1z"/>
	<path class="st0" d="M101.2,341.2c-12.8,0-23.2,10.4-23.2,23.2c0,12.8,10.4,23.2,23.2,23.2s23.2-10.4,23.2-23.2
		C124.4,351.6,114,341.2,101.2,341.2z M101.2,372.1c-4.3,0-7.7-3.5-7.7-7.7c0-4.3,3.5-7.7,7.7-7.7c4.3,0,7.7,3.5,7.7,7.7
		C108.9,368.7,105.4,372.1,101.2,372.1z"/>
	<path class="st0" d="M364.4,279.2h-15.5c-4.3,0-7.7,3.5-7.7,7.7s3.5,7.7,7.7,7.7h15.5c4.3,0,7.7-3.5,7.7-7.7
		S368.7,279.2,364.4,279.2z"/>
	<path class="st0" d="M121.8,124.4c-4.3,0-7.7,3.5-7.7,7.7V287c0,4.3,3.5,7.7,7.7,7.7s7.7-3.5,7.7-7.7V132.1
		C129.5,127.9,126.1,124.4,121.8,124.4z"/>
	<path class="st0" d="M268.9,124.4c-4.3,0-7.7,3.5-7.7,7.7V287c0,4.3,3.5,7.7,7.7,7.7c4.3,0,7.7-3.5,7.7-7.7V132.1
		C276.6,127.9,273.2,124.4,268.9,124.4z"/>
	<path class="st0" d="M219.9,124.4c-4.3,0-7.7,3.5-7.7,7.7V287c0,4.3,3.5,7.7,7.7,7.7c4.3,0,7.7-3.5,7.7-7.7V132.1
		C227.6,127.9,224.1,124.4,219.9,124.4z"/>
	<path class="st0" d="M170.8,124.4c-4.3,0-7.7,3.5-7.7,7.7V287c0,4.3,3.5,7.7,7.7,7.7c4.3,0,7.7-3.5,7.7-7.7V132.1
		C178.6,127.9,175.1,124.4,170.8,124.4z"/>
	<path class="st0" d="M72.8,124.4c-4.3,0-7.7,3.5-7.7,7.7V287c0,4.3,3.5,7.7,7.7,7.7c4.3,0,7.7-3.5,7.7-7.7V132.1
		C80.5,127.9,77.1,124.4,72.8,124.4z"/>
</g>
</svg>
