<?xml version="1.0" encoding="utf-8"?>
<!-- Generator: Adobe Illustrator 27.3.1, SVG Export Plug-In . SVG Version: 6.00 Build 0)  -->
<svg version="1.1" id="Layer_1" xmlns="http://www.w3.org/2000/svg" xmlns:xlink="http://www.w3.org/1999/xlink" x="0px" y="0px"
	 viewBox="0 0 225 56.2" style="enable-background:new 0 0 225 56.2;" xml:space="preserve">
<style type="text/css">
	.st0{fill:#FFFFFF;}
</style>
<g>
	<path class="st0" d="M4.8,2.4c0,1.3-1.1,2.4-2.4,2.4S0,3.7,0,2.4S1.1,0,2.4,0S4.8,1.1,4.8,2.4"/>
	<path class="st0" d="M23.5,2.4c0,1.3-1.1,2.4-2.4,2.4s-2.4-1.1-2.4-2.4S19.8,0,21.1,0S23.5,1.1,23.5,2.4"/>
	<path class="st0" d="M42.2,2.4c0,1.3-1.1,2.4-2.4,2.4s-2.4-1.1-2.4-2.4S38.6,0,39.9,0S42.2,1.1,42.2,2.4"/>
	<path class="st0" d="M61,2.4c0,1.3-1.1,2.4-2.4,2.4s-2.4-1.1-2.4-2.4S57.3,0,58.6,0S61,1.1,61,2.4"/>
	<path class="st0" d="M79.8,2.4c0,1.3-1.1,2.4-2.4,2.4S75,3.7,75,2.4S76.1,0,77.4,0S79.8,1.1,79.8,2.4"/>
	<path class="st0" d="M98.5,2.4c0,1.3-1.1,2.4-2.4,2.4s-2.4-1.1-2.4-2.4S94.8,0,96.1,0S98.5,1.1,98.5,2.4"/>
	<path class="st0" d="M117.2,2.4c0,1.3-1.1,2.4-2.4,2.4s-2.4-1.1-2.4-2.4s1.1-2.4,2.4-2.4S117.2,1.1,117.2,2.4"/>
	<path class="st0" d="M136,2.4c0,1.3-1.1,2.4-2.4,2.4s-2.4-1.1-2.4-2.4s1.1-2.4,2.4-2.4S136,1.1,136,2.4"/>
	<path class="st0" d="M154.8,2.4c0,1.3-1.1,2.4-2.4,2.4S150,3.7,150,2.4s1.1-2.4,2.4-2.4S154.8,1.1,154.8,2.4"/>
	<path class="st0" d="M173.5,2.4c0,1.3-1.1,2.4-2.4,2.4s-2.4-1.1-2.4-2.4s1.1-2.4,2.4-2.4S173.5,1.1,173.5,2.4"/>
	<path class="st0" d="M192.2,2.4c0,1.3-1.1,2.4-2.4,2.4s-2.4-1.1-2.4-2.4s1.1-2.4,2.4-2.4S192.2,1.1,192.2,2.4"/>
	<path class="st0" d="M211,2.4c0,1.3-1.1,2.4-2.4,2.4s-2.4-1.1-2.4-2.4s1.1-2.4,2.4-2.4S211,1.1,211,2.4"/>
	<path class="st0" d="M4.8,21.1c0,1.3-1.1,2.4-2.4,2.4S0,22.4,0,21.1s1.1-2.4,2.4-2.4S4.8,19.8,4.8,21.1L4.8,21.1"/>
	<path class="st0" d="M23.5,21.1c0,1.3-1.1,2.4-2.4,2.4s-2.4-1.1-2.4-2.4s1.1-2.4,2.4-2.4S23.5,19.8,23.5,21.1L23.5,21.1"/>
	<path class="st0" d="M42.2,21.1c0,1.3-1.1,2.4-2.4,2.4s-2.4-1.1-2.4-2.4s1.1-2.4,2.4-2.4S42.2,19.8,42.2,21.1L42.2,21.1"/>
	<path class="st0" d="M61,21.1c0,1.3-1.1,2.4-2.4,2.4s-2.4-1.1-2.4-2.4s1.1-2.4,2.4-2.4S61,19.8,61,21.1L61,21.1"/>
	<path class="st0" d="M79.8,21.1c0,1.3-1.1,2.4-2.4,2.4S75,22.4,75,21.1s1.1-2.4,2.4-2.4S79.8,19.8,79.8,21.1L79.8,21.1"/>
	<path class="st0" d="M98.5,21.1c0,1.3-1.1,2.4-2.4,2.4s-2.4-1.1-2.4-2.4s1.1-2.4,2.4-2.4S98.5,19.8,98.5,21.1L98.5,21.1"/>
	<path class="st0" d="M117.2,21.1c0,1.3-1.1,2.4-2.4,2.4s-2.4-1.1-2.4-2.4s1.1-2.4,2.4-2.4S117.2,19.8,117.2,21.1L117.2,21.1"/>
	<path class="st0" d="M136,21.1c0,1.3-1.1,2.4-2.4,2.4s-2.4-1.1-2.4-2.4s1.1-2.4,2.4-2.4S136,19.8,136,21.1L136,21.1"/>
	<path class="st0" d="M154.8,21.1c0,1.3-1.1,2.4-2.4,2.4s-2.4-1.1-2.4-2.4s1.1-2.4,2.4-2.4S154.8,19.8,154.8,21.1L154.8,21.1"/>
	<path class="st0" d="M173.5,21.1c0,1.3-1.1,2.4-2.4,2.4s-2.4-1.1-2.4-2.4s1.1-2.4,2.4-2.4S173.5,19.8,173.5,21.1L173.5,21.1"/>
	<path class="st0" d="M192.2,21.1c0,1.3-1.1,2.4-2.4,2.4s-2.4-1.1-2.4-2.4s1.1-2.4,2.4-2.4S192.2,19.8,192.2,21.1L192.2,21.1"/>
	<path class="st0" d="M211,21.1c0,1.3-1.1,2.4-2.4,2.4s-2.4-1.1-2.4-2.4s1.1-2.4,2.4-2.4S211,19.8,211,21.1L211,21.1"/>
	<path class="st0" d="M4.8,39.9c0,1.3-1.1,2.4-2.4,2.4S0,41.2,0,39.9s1.1-2.4,2.4-2.4S4.8,38.6,4.8,39.9L4.8,39.9"/>
	<path class="st0" d="M23.5,39.9c0,1.3-1.1,2.4-2.4,2.4s-2.4-1.1-2.4-2.4s1.1-2.4,2.4-2.4S23.5,38.6,23.5,39.9L23.5,39.9"/>
	<path class="st0" d="M42.2,39.9c0,1.3-1.1,2.4-2.4,2.4s-2.4-1.1-2.4-2.4s1.1-2.4,2.4-2.4S42.2,38.6,42.2,39.9L42.2,39.9"/>
	<path class="st0" d="M61,39.9c0,1.3-1.1,2.4-2.4,2.4s-2.4-1.1-2.4-2.4s1.1-2.4,2.4-2.4S61,38.6,61,39.9L61,39.9"/>
	<path class="st0" d="M79.8,39.9c0,1.3-1.1,2.4-2.4,2.4S75,41.2,75,39.9s1.1-2.4,2.4-2.4S79.8,38.6,79.8,39.9L79.8,39.9"/>
	<path class="st0" d="M98.5,39.9c0,1.3-1.1,2.4-2.4,2.4s-2.4-1.1-2.4-2.4s1.1-2.4,2.4-2.4S98.5,38.6,98.5,39.9L98.5,39.9"/>
	<path class="st0" d="M117.2,39.9c0,1.3-1.1,2.4-2.4,2.4s-2.4-1.1-2.4-2.4s1.1-2.4,2.4-2.4S117.2,38.6,117.2,39.9L117.2,39.9"/>
	<path class="st0" d="M136,39.9c0,1.3-1.1,2.4-2.4,2.4s-2.4-1.1-2.4-2.4s1.1-2.4,2.4-2.4S136,38.6,136,39.9L136,39.9"/>
	<path class="st0" d="M154.8,39.9c0,1.3-1.1,2.4-2.4,2.4s-2.4-1.1-2.4-2.4s1.1-2.4,2.4-2.4S154.8,38.6,154.8,39.9L154.8,39.9"/>
	<path class="st0" d="M173.5,39.9c0,1.3-1.1,2.4-2.4,2.4s-2.4-1.1-2.4-2.4s1.1-2.4,2.4-2.4S173.5,38.6,173.5,39.9L173.5,39.9"/>
	<path class="st0" d="M192.2,39.9c0,1.3-1.1,2.4-2.4,2.4s-2.4-1.1-2.4-2.4s1.1-2.4,2.4-2.4S192.2,38.6,192.2,39.9L192.2,39.9"/>
	<path class="st0" d="M211,39.9c0,1.3-1.1,2.4-2.4,2.4s-2.4-1.1-2.4-2.4s1.1-2.4,2.4-2.4S211,38.6,211,39.9L211,39.9"/>
</g>
</svg>
