<?xml version="1.0" encoding="UTF-8"?>
<svg id="Layer_2" xmlns="http://www.w3.org/2000/svg" viewBox="0 0 229.09 38.43">
  <defs>
    <style>
      .cls-1 {
        fill: #fff;
      }

      .cls-2 {
        fill: #ff8300;
      }
    </style>
  </defs>
  <g id="Capa_1">
    <g>
      <path class="cls-1" d="M86.21,3.75h-3.57l.66-3.75h3.58l-.67,3.75ZM81.69,0h-3.58l-.65,3.75h3.57l.67-3.75ZM58.62,0h-7.41l-4.7,26.87h18.06l1.04-6h-10.68L58.62,0ZM137.29,20.9h4.7l-1,5.97h-20.48c-1.82,0-3.1-.49-3.83-1.48-.75-1-.95-2.47-.6-4.42l1.76-10.09c.35-2,1.05-3.5,2.12-4.46,1.07-.97,2.52-1.47,4.37-1.47h10.31c1.86,0,3.14.48,3.86,1.46.71.96.89,2.46.53,4.47l-1.75,10.02ZM131.8,10.88h-7.21l-1.74,9.99h7.2l1.75-9.99ZM85.43,4.95l-2.79,15.92h-7.64l2.79-15.92h-6.98l-3.05,17.4c-.24,1.39.01,2.49.76,3.3.75.8,1.9,1.22,3.46,1.22h11.61c1.55,0,2.84-.4,3.87-1.2,1.02-.8,1.66-1.91,1.9-3.31l3.05-17.4h-6.97ZM185.67,10.88l-1.76,10.09c-.33,1.95-1.05,3.42-2.12,4.42-1.08.99-2.52,1.48-4.34,1.48h-10.3c-1.83,0-3.1-.49-3.83-1.48-.75-1-.95-2.47-.6-4.42l1.76-10.09c.35-2,1.06-3.5,2.12-4.46,1.07-.97,2.53-1.47,4.37-1.47h10.31c1.86,0,3.14.48,3.86,1.46.71.96.9,2.46.54,4.47ZM178.68,10.88h-7.2l-1.75,9.99h7.21l1.73-9.99ZM113.66,10.88l1.03-5.93h-13.16c-2.36,0-4.11.34-5.25,1.02-1.15.67-1.84,1.76-2.11,3.3l-.92,5.25c-.25,1.5-.01,2.52.75,3.11.76.58,2.47.87,5.16.87h7.73l-.41,2.38h-14.48l-1.04,6h16.36c1.54,0,2.82-.35,3.79-1.06,1-.69,1.6-1.66,1.82-2.87l.93-5.38c.25-1.46.04-2.53-.66-3.22-.68-.68-1.9-1.03-3.61-1.03h-9.29l.43-2.43h12.93ZM163.27,4.95h-20.78l-1.03,5.93h6.87l-2.79,15.99h7.35l2.79-15.99h6.56l1.04-5.93ZM206.59,26.87h7.02l1.48-8.51h11.66l.87-4.96h-11.66l.44-2.52h11.66l1.03-5.93h-18.67l-3.83,21.92ZM195.2,10.88h11.66l1.04-5.93h-18.69l-3.83,21.92h7.03l1.49-8.51h11.65l.87-4.96h-11.66l.44-2.52Z"/>
      <path class="cls-2" d="M9.7,0C8.8,4.43.98,9.01.1,13.44c-.93,4.53,5.08,8.9,4.16,13.43h37.42L46.39,0H9.7ZM26.9,23.98H9.66L13.33,2.87h6.98l-2.68,15.34h10.28l-1.01,5.77ZM39.92,7.88h-2.72l-1.83,10.34h2.7l-.99,5.77h-8.21l1.55-8.88c-.47.48-1.09.82-1.56,1.02-.46.2-1.02.29-1.71.29h-3.63c-1.26,0-2.16-.36-2.7-1.07-.54-.71-.67-1.73-.4-3.08l.97-5.22c.24-1.34.82-2.36,1.64-3.09.82-.71,1.87-1.07,3.13-1.07h3.41c.86,0,1.49.13,1.89.42.4.27.67.72.79,1.37.44-.66.91-1.13,1.42-1.38.51-.27,1.18-.4,2.03-.4h5.08l-.87,4.98ZM27.01,7.75h4.71l-.71,4.08h-4.77l.78-4.08Z"/>
      <path class="cls-2" d="M92.5,34.31h-1.66l-.72,4.1h-1.91l.72-4.1h-1.66l.3-1.68h5.23l-.3,1.68ZM97.06,32.63l-.37,2.1h-1.89l.37-2.1h-1.91l-1.02,5.78h1.91l.39-2.25h1.89l-.39,2.25h1.91l1.02-5.78h-1.91ZM99.77,32.63l-1.02,5.78h1.91l1.02-5.78h-1.91ZM106.39,32.63l-.44,2.48-1.18-2.48h-2.29l-1.02,5.78h1.91l.58-3.29,1.49,3.29h1.84l1.02-5.78h-1.91ZM112.88,34.87l2.03-2.24h-2.23l-2.1,2.43.43-2.43h-1.91l-1.02,5.78h1.91l.38-2.19h1.86l-.38,2.19h1.91l.28-1.6.05-.34c.02-.11.02-.22.02-.33,0-.4-.12-.72-.35-.94-.21-.21-.51-.32-.9-.34ZM115.58,32.63l-1.02,5.78h1.91l1.02-5.78h-1.91ZM121.77,35.11l-1.18-2.48h-2.29l-1.02,5.78h1.91l.58-3.29,1.49,3.29h1.84l1.02-5.78h-1.91l-.44,2.48ZM125.52,32.91c-.34.21-.59.51-.75.89-.07.14-.12.3-.14.47l-.43,2.43-.02.14c-.02.12-.02.24-.02.34,0,.29.05.53.15.7.1.18.26.32.46.42.15.07.3.1.43.1h2.84c.36,0,.63-.03.83-.09.2-.06.39-.18.57-.36.24-.24.4-.56.47-.96l.38-2.14h-1.91l-.33,1.86h-1.96l.43-2.42h3.86l.3-1.68h-4.15c-.38,0-.72.09-1,.28ZM139.08,33.11c.15.2.22.43.22.68v.21c-.02.06-.03.1-.03.12l-.76,4.28h-1.91l.38-2.14h-1.62l-.38,2.14h-1.91l.76-4.3.05-.19c.12-.36.27-.63.44-.81.18-.18.42-.32.73-.42.07-.02.15-.04.26-.05.1-.01.23-.02.39-.02h2.41c.41,0,.73.16.96.48ZM135.72,34.31l-.1.54h1.62l.1-.54h-1.62ZM145.49,32.97c.22.23.34.46.34.7,0,.04,0,.09-.02.17l-.13.76c0,.06-.04.16-.24.46-.05.07-.11.13-.16.19-.08.08-.16.15-.25.21l-.05.04s0,0,0,0c.06.05.1.08.13.11h.01c.08.12.14.22.19.33.04.09.06.18.08.26.02.09.02.15.01.2l-.13.75c-.03.19-.12.37-.25.54-.13.17-.33.33-.58.48-.18.11-.41.19-.68.23-.08.01-.15.02-.23.03-.08,0-.15.01-.22.01h-3.97l1.02-5.8h4.25c.22,0,.38.02.51.07.13.05.26.14.39.27ZM141.64,36.1l-.11.64h1.82l.11-.64h-1.82ZM141.95,34.31l-.1.56h1.82l.1-.56h-1.82ZM152.43,33.82v.24c-.02.06-.03.11-.03.14l-.49,2.75c-.02.12-.05.23-.11.34-.06.14-.14.29-.25.41-.21.24-.42.42-.64.53-.22.11-.46.17-.73.17h-3.04c-.14,0-.28-.03-.43-.1-.2-.1-.36-.24-.46-.42-.1-.18-.15-.42-.15-.7,0-.1,0-.22.02-.34l.02-.14.43-2.43c.02-.17.07-.33.14-.47.16-.38.41-.68.75-.89.28-.18.62-.28,1-.28h2.47c.49,0,.87.1,1.11.3.25.2.38.51.38.9ZM148.46,34.31l-.43,2.42h2.01l.43-2.42h-2.01ZM156.69,36.73h-2.03l.72-4.1h-1.91l-.72,4.08-.02.15c-.02.12-.02.24-.02.34,0,.29.05.52.15.69.1.17.26.31.47.41.13.06.23.09.31.1.08.01.21.02.41.02h2.94c.17,0,.34-.05.52-.14.17-.09.34-.22.51-.4.17-.17.3-.35.38-.51.08-.16.15-.36.18-.58l.73-4.15h-1.91l-.72,4.1ZM159.5,34.31h1.66l-.72,4.1h1.91l.72-4.1h1.66l.3-1.68h-5.23l-.3,1.68ZM173.01,32.63h-5.23l-.3,1.68h1.66l-.72,4.1h1.91l.72-4.1h1.66l.3-1.68ZM177.28,32.63l-.37,2.1h-1.89l.37-2.1h-1.91l-1.02,5.78h1.91l.39-2.25h1.89l-.39,2.25h1.91l1.02-5.78h-1.91ZM178.97,38.41h5.03l.3-1.68h-3.12l.11-.62h3.13l.23-1.3h-3.13l.09-.51h3.13l.3-1.68h-5.03l-1.02,5.78ZM193.19,34.31l.3-1.68h-5.03l-1.02,5.78h1.91l.41-2.3h3.13l.23-1.3h-3.13l.09-.51h3.13ZM197.33,36.73h-2.03l.72-4.1h-1.91l-.72,4.08-.02.15c-.02.12-.02.24-.02.34,0,.29.05.52.15.69.1.17.26.31.47.41.13.06.23.09.31.1.08.01.21.02.41.02h2.94c.17,0,.34-.05.52-.14.17-.09.34-.22.51-.4.17-.17.3-.35.38-.51.08-.16.15-.36.18-.58l.73-4.15h-1.91l-.72,4.1ZM200.43,32.63l-.3,1.68h1.66l-.72,4.1h1.91l.72-4.1h1.66l.3-1.68h-5.23ZM210.07,32.63l-.72,4.1h-2.03l.72-4.1h-1.91l-.72,4.08-.02.15c-.02.12-.02.24-.02.34,0,.29.05.52.15.69.1.17.26.31.47.41.13.06.23.09.31.1.08.01.21.02.41.02h2.94c.17,0,.34-.05.52-.14.17-.09.34-.22.51-.4.17-.17.3-.35.38-.51.08-.16.15-.36.18-.58l.73-4.15h-1.91ZM218.2,33.82l-.15.85c-.01.06-.04.13-.07.2-.03.07-.08.16-.15.25-.05.07-.11.13-.19.2-.07.06-.17.13-.28.2l-.06.03c.13.11.22.21.3.31.1.18.15.34.15.49v.12c-.02.05-.02.07-.02.07v.02s-.33,1.83-.33,1.83h-1.91l.38-2.19h-1.81l-.38,2.19h-1.91l1.02-5.78h4.4c.16,0,.28.01.38.04.1.03.2.09.31.17.24.19.35.44.35.72,0,.08,0,.17-.02.26ZM214.39,34.31l-.09.52h1.81l.09-.52h-1.81ZM223.95,34.31l.3-1.68h-5.03l-1.02,5.78h5.03l.3-1.68h-3.12l.11-.62h3.13l.23-1.3h-3.13l.09-.51h3.13Z"/>
    </g>
  </g>
</svg>